Format : AVI
Format/Info : Audio Video Interleave
File size : 1.34 GiB
Duration : 1h 34mn
Overall bit rate : 2 026 Kbps
Writing library : VirtualDub build 32842/release

Video
ID : 0
Format : MPEG-4 Visual
Format profile : Advanced Simple@L5
Format settings, BVOP : 2
Format settings, QPel : No
Format settings, GMC : No warppoints
Format settings, Matrix : Default (H.263)
Muxing mode : Packed bitstream
Codec ID : XVID
Codec ID/Hint : XviD
Duration : 1h 34mn
Bit rate : 1 888 Kbps
Width : 720 pixels
Height : 304 pixels
Display aspect ratio : 2.35:1
Frame rate : 25.000 fps
Color space : YUV
Chroma subsampling : 4:2:0
Bit depth : 8 bits
Scan type : Progressive
Compression mode : Lossy
Bits/(Pixel*Frame) : 0.345
Stream size : 1.25 GiB (93%)
Writing library : XviD 64

Audio
ID : 1
Format : MPEG Audio
Format version : Version 1
Format profile : Layer 3
Mode : Joint stereo
Mode extension : MS Stereo
Codec ID : 55
Codec ID/Hint : MP3
Duration : 1h 34mn
Bit rate mode : Constant
Bit rate : 128 Kbps
Channel(s) : 2 channels
Sampling rate : 44.1 KHz
Compression mode : Lossy
Stream size : 86.6 MiB (6%)
Alignment : Split accross interleaves
Interleave, duration : 40 ms (1.00 video frame)
Interleave, preload duration : 500 ms
Writing library : LAME3.98r
Encoding settings : -m j -V 4 -q 2 -lowpass 17 -b 128





 
http://www.imdb.com/title/tt1216475/






Users: (961 votes) 38 reviews | Critics: 18 reviews Metascore: 58/100 (based on 35 reviews from Metacritic.com)


Star race car Lightning McQueen and his pal Mater head overseas to compete in the World Grand Prix race. But the road to the championship becomes rocky as Mater gets caught up in an intriguing adventure of his own: international espionage.

Directors: John Lasseter, Brad Lewis
Writers: Ben Queen (screenplay), John Lasseter (story), and 2 more credits »
Stars: Owen Wilson, Larry the Cable Guy and Michael Caine























Source Used



VIDEO: ........................... Cars2.TS.DVD.RELIZLAB....IMAGiNE ...Thanks
AUDIO: ........................... IMAGiNE ..............................Thanks



Same vid near enough as the previous upload this time using IMAGiNEs line which has abit static now and again but nothing major


Enjoy





Greetz to IMAGiNE,Flawl3ss,DiLLoN,BDK,NOiR,TOXiC,THC,Ez,Rx,Boobyblue,TaRiQ786,LKRG,





 
http://www.leetleech.org/images/35593285650626064450.png 
http://www.leetleech.org/images/67353918378668891791.png 
http://www.leetleech.org/images/17241281171596524610.png